<svg xmlns="http://www.w3.org/2000/svg" xmlns:xlink="http://www.w3.org/1999/xlink" width="18" height="18" viewBox="0 0 18 18" fill="none"><g opacity="1"  transform="translate(0 0)  rotate(0)"><mask id="bg-mask-0" fill="white"><use transform="translate(0 0)  rotate(0)" xlink:href="#path_0"></use></mask><g mask="url(#bg-mask-0)" ><path id="路径 1" fill-rule="evenodd" style="fill:#FFFFFF" opacity="1" d="M18,11.25c0,2.51 -1.83,4.5 -4.15,4.5h-9c-2.67,0 -4.85,-2.36 -4.85,-5.25c0,-2.56 1.66,-4.67 3.98,-5.17c1.01,-1.89 2.91,-3.08 5.02,-3.08c2.68,0 4.96,1.91 5.68,4.59c1.88,0.43 3.32,2.28 3.32,4.41zM9,13.3l3,-3.28h-6v0zM9.75,5.52h-1.5v4.5h1.5z"></path></g></g><defs><rect id="path_0" x="0" y="0" width="18" height="18" /></defs></svg>
