<svg xmlns="http://www.w3.org/2000/svg" xmlns:xlink="http://www.w3.org/1999/xlink" width="18" height="18" viewBox="0 0 18 18" fill="none"><g opacity="1"  transform="translate(0 0)  rotate(0)"><mask id="bg-mask-0" fill="white"><use transform="translate(0 0)  rotate(0)" xlink:href="#path_0"></use></mask><g mask="url(#bg-mask-0)" ><path id="路径 1" fill-rule="evenodd" style="fill:#FFFFFF" opacity="1" d="M15.8194 3.02815C15.7494 2.80815 15.5994 2.62815 15.3994 2.51815C15.1994 2.40815 14.9694 2.38815 14.7494 2.45815L2.80939 6.10815C2.51939 6.19815 2.29939 6.42815 2.22939 6.72815C2.14939 7.01815 2.23939 7.32815 2.44939 7.53815L4.26939 9.34815L10.5194 6.50815L5.66939 10.7881L5.66939 14.5681C5.66939 14.7381 5.76939 14.8981 5.92939 14.9682C6.08939 15.0281 6.27939 14.9981 6.39939 14.8681L8.08939 13.1782L10.7394 15.8281C10.9494 16.0382 11.2594 16.1181 11.5494 16.0481C11.8394 15.9782 12.0794 15.7582 12.1594 15.4682L15.8194 3.52815C15.8694 3.35815 15.8694 3.18815 15.8194 3.02815L15.8194 3.02815Z"></path></g></g><defs><rect id="path_0" x="0" y="0" width="18" height="18" /></defs></svg>
