<svg xmlns="http://www.w3.org/2000/svg" xmlns:xlink="http://www.w3.org/1999/xlink" width="18" height="18" viewBox="0 0 18 18" fill="none"><g opacity="1"  transform="translate(0 0)  rotate(0)"><mask id="bg-mask-0" fill="white"><use transform="translate(0 0)  rotate(0)" xlink:href="#path_0"></use></mask><g mask="url(#bg-mask-0)" ><path id="路径 1" fill-rule="evenodd" style="fill:#FFFFFF" opacity="1" d="M9.00758,6.86346c0.53,0 1.02002,0.21 1.39002,0.58c0.37,0.37 0.58,0.86 0.58,1.39c0,0.53 -0.21,1.02 -0.58,1.39004c-0.37,0.37 -0.86002,0.58 -1.39002,0.58c-0.52,0 -1.02,-0.21 -1.39,-0.58c-0.37,-0.37004 -0.58,-0.86004 -0.58,-1.39004c0,-0.53 0.21,-1.02 0.58,-1.39c0.37,-0.37 0.87,-0.58 1.39,-0.58zM16.2576,11.0035c0.18,0.16 0.24,0.4 0.17,0.62l-0.02,0.04c-0.32,0.89 -0.79,1.7 -1.4,2.42l-0.03,0.04c-0.15,0.18 -0.4,0.24 -0.62,0.17l-1.43,-0.51c-0.52,0.43 -1.11,0.77 -1.75,1.01l-0.27,1.49c-0.04,0.23 -0.23,0.41 -0.46,0.45l-0.04,0.01c-0.46002,0.09 -0.93002,0.13 -1.40002,0.13c-0.47,0 -0.94,-0.04 -1.39,-0.13l-0.05,-0.01c-0.23,-0.04 -0.41,-0.22 -0.46,-0.45l-0.27,-1.5c-0.63,-0.23 -1.22,-0.57 -1.74,-1l-1.44,0.51c-0.22,0.07 -0.47,0.01 -0.62,-0.17l-0.03,-0.04c-0.61,-0.72 -1.08,-1.53 -1.4,-2.42l-0.01,-0.04c-0.08,-0.22 -0.02,-0.47 0.16,-0.62l1.16,-0.99c-0.05,-0.33004 -0.08,-0.67004 -0.08,-1.01004c0,-0.33 0.03,-0.67 0.08,-1l-1.16,-0.99c-0.18,-0.15 -0.25,-0.4 -0.17,-0.62l0.02,-0.05c0.32,-0.88 0.79,-1.69 1.4,-2.42l0.03,-0.03c0.15,-0.18 0.4,-0.25 0.62,-0.17l1.43,0.51c0.53,-0.43 1.11,-0.77 1.74,-1.01l0.28,-1.5c0.04,-0.23 0.22,-0.41 0.45,-0.45l0.05,-0.01c0.92,-0.16 1.88,-0.16 2.79002,0l0.05,0.01c0.23,0.04 0.41,0.22 0.45,0.45l0.28,1.5c0.64,0.23 1.22,0.58 1.75,1.01l1.43,-0.51c0.22,-0.08 0.46,-0.01 0.62,0.17l0.03,0.03c0.61,0.72 1.08,1.54 1.4,2.42l0.01,0.05c0.08,0.22 0.02,0.47 -0.16,0.62l-1.15,0.98c0.05,0.33 0.08,0.68 0.08,1.02c0,0.33 -0.03,0.68 -0.08,1.01004zM12.0976,8.83346c0,-1.71 -1.38,-3.09 -3.09002,-3.09c-1.71,0 -3.09,1.38 -3.09,3.09c0,1.71004 1.38,3.09004 3.09,3.09004c1.71002,0 3.09002,-1.38 3.09002,-3.09004z"></path></g></g><defs><rect id="path_0" x="0" y="0" width="18" height="18" /></defs></svg>
